<?xml version="1.0" encoding="utf-8"?>
<!-- Generator: Adobe Illustrator 16.0.0, SVG Export Plug-In . SVG Version: 6.00 Build 0)  -->
<!DOCTYPE svg PUBLIC "-//W3C//DTD SVG 1.1//EN" "http://www.w3.org/Graphics/SVG/1.1/DTD/svg11.dtd">
<svg version="1.1" id="Warstwa_1" xmlns="http://www.w3.org/2000/svg" xmlns:xlink="http://www.w3.org/1999/xlink" x="0px" y="0px"
	 width="1792px" height="1792px" viewBox="0 0 1792 1792" enable-background="new 0 0 1792 1792" xml:space="preserve">
<path d="M856.3,896.189c0-43.834-15.507-81.259-46.524-112.276c-31.015-31.015-68.439-46.522-112.276-46.522
	c-43.835,0-81.259,15.507-112.276,46.522c-31.015,31.018-46.521,68.442-46.521,112.276c0,43.836,15.506,81.263,46.521,112.276
	c31.017,31.017,68.441,46.525,112.276,46.525c43.836,0,81.261-15.509,112.276-46.525C840.793,977.452,856.3,940.025,856.3,896.189z
	 M1332.699,1213.788c0-21.504-7.859-40.111-23.571-55.829c-15.715-15.713-34.325-23.57-55.83-23.57
	c-21.504,0-40.111,7.857-55.829,23.57c-15.712,15.718-23.568,34.325-23.568,55.829c0,21.918,7.753,40.632,23.262,56.14
	c15.508,15.506,34.219,23.262,56.136,23.262c21.918,0,40.633-7.756,56.14-23.262
	C1324.947,1254.42,1332.699,1235.706,1332.699,1213.788z M1332.699,578.591c0-21.504-7.859-40.113-23.571-55.829
	c-15.715-15.715-34.325-23.571-55.83-23.571c-21.504,0-40.111,7.856-55.829,23.571c-15.712,15.716-23.568,34.325-23.568,55.829
	c0,21.917,7.753,40.63,23.262,56.138c15.508,15.507,34.219,23.261,56.136,23.261c21.918,0,40.633-7.754,56.14-23.261
	C1324.947,619.221,1332.699,600.508,1332.699,578.591z M1094.501,839.742v114.757c0,4.138-1.449,8.168-4.343,12.095
	c-2.895,3.93-6.205,6.103-9.926,6.516l-96.149,14.886c-4.548,14.474-11.166,30.19-19.848,47.144
	c14.06,19.852,32.67,43.629,55.825,71.337c2.896,4.136,4.343,8.27,4.343,12.407c0,4.961-1.446,8.891-4.343,11.783
	c-9.509,12.407-26.568,30.912-51.175,55.52c-24.604,24.605-40.837,36.906-48.691,36.906c-4.551,0-8.894-1.445-13.027-4.339
	l-71.336-55.829c-15.302,7.857-31.223,14.269-47.764,19.229c-4.549,44.662-9.306,76.711-14.269,96.149
	c-2.894,9.922-9.097,14.887-18.609,14.887H639.813c-4.549,0-8.685-1.551-12.405-4.654c-3.722-3.102-5.79-6.721-6.205-10.854
	l-14.267-94.909c-14.06-4.134-29.568-10.544-46.524-19.229l-73.196,55.211c-2.896,2.894-7.032,4.339-12.406,4.339
	c-4.549,0-8.892-1.654-13.028-4.961c-59.55-55.002-89.324-88.083-89.324-99.248c0-3.724,1.448-7.652,4.343-11.788
	c4.136-5.787,12.612-16.748,25.431-32.874c12.82-16.132,22.539-28.742,29.155-37.841c-9.51-18.194-16.749-35.15-21.71-50.864
	l-94.288-14.888c-4.136-0.417-7.651-2.378-10.545-5.894c-2.896-3.515-4.343-7.547-4.343-12.099V837.881
	c0-4.136,1.447-8.167,4.343-12.096c2.894-3.929,6.203-6.099,9.926-6.514l96.147-14.887c4.549-14.473,11.166-30.188,19.849-47.143
	c-14.06-19.85-32.669-43.628-55.828-71.336c-2.895-4.549-4.342-8.685-4.342-12.406c0-4.962,1.447-9.099,4.342-12.406
	c9.097-12.406,26.053-30.81,50.865-55.209c24.813-24.398,41.147-36.598,49.006-36.598c4.548,0,8.89,1.447,13.026,4.342
	l71.336,55.828c14.06-7.443,29.981-14.06,47.764-19.85c4.549-44.663,9.305-76.505,14.267-95.527
	c2.895-9.925,9.099-14.888,18.61-14.888H755.19c4.549,0,8.685,1.551,12.406,4.652c3.722,3.102,5.789,6.721,6.203,10.856
	l14.269,94.907c14.06,4.136,29.568,10.546,46.523,19.229l73.199-55.208c3.307-2.895,7.44-4.342,12.405-4.342
	c4.548,0,8.89,1.654,13.024,4.963c59.55,55,89.325,88.084,89.325,99.25c0,3.721-1.447,7.65-4.343,11.786
	c-4.963,6.616-13.646,17.783-26.052,33.496c-12.405,15.715-21.713,28.121-27.914,37.219c9.509,19.85,16.541,36.805,21.092,50.864
	l94.287,14.269c4.134,0.827,7.649,2.999,10.544,6.512C1093.052,831.16,1094.501,835.192,1094.501,839.742z M1491.497,1170.366
	v86.846c0,6.613-30.808,13.024-92.426,19.228c-4.961,11.167-11.164,21.92-18.61,32.258c21.092,46.73,31.639,75.264,31.639,85.603
	c0,1.652-0.827,3.103-2.48,4.343c-50.454,29.358-76.094,44.041-76.92,44.041c-3.309,0-12.82-9.718-28.533-29.155
	c-15.717-19.437-26.469-33.497-32.257-42.182c-8.271,0.827-14.474,1.242-18.611,1.242c-4.134,0-10.339-0.415-18.607-1.242
	c-5.791,8.685-16.543,22.745-32.257,42.182c-15.712,19.438-25.225,29.155-28.533,29.155c-0.825,0-26.469-14.683-76.92-44.041
	c-1.652-1.24-2.479-2.69-2.479-4.343c0-10.339,10.544-38.872,31.635-85.603c-7.446-10.338-13.646-21.091-18.61-32.258
	c-61.618-6.203-92.426-12.614-92.426-19.228v-86.846c0-6.615,30.808-13.026,92.426-19.229c5.378-11.994,11.578-22.745,18.61-32.254
	c-21.091-46.73-31.635-75.268-31.635-85.604c0-1.654,0.827-3.101,2.479-4.343c1.654-0.827,8.891-4.961,21.709-12.407
	c12.824-7.441,25.021-14.474,36.6-21.087c11.581-6.619,17.786-9.926,18.611-9.926c3.309,0,12.821,9.613,28.533,28.843
	c15.714,19.229,26.466,33.187,32.257,41.871c8.269-0.825,14.474-1.239,18.607-1.239c4.138,0,10.34,0.414,18.611,1.239
	c21.091-29.362,40.111-52.521,57.068-69.474l3.722-1.24c1.653,0,27.293,14.473,76.92,43.42c1.653,1.242,2.48,2.688,2.48,4.343
	c0,10.337-10.547,38.874-31.639,85.604c7.032,9.509,13.236,20.26,18.61,32.254
	C1460.689,1157.34,1491.497,1163.751,1491.497,1170.366z M1491.497,535.169v86.844c0,6.616-30.808,13.026-92.426,19.229
	c-4.961,11.166-11.164,21.918-18.61,32.256c21.092,46.73,31.639,75.264,31.639,85.602c0,1.655-0.827,3.103-2.48,4.343
	c-50.454,29.361-76.094,44.042-76.92,44.042c-3.309,0-12.82-9.717-28.533-29.155c-15.717-19.436-26.469-33.496-32.257-42.181
	c-8.271,0.827-14.474,1.242-18.611,1.242c-4.134,0-10.339-0.415-18.607-1.242c-5.791,8.685-16.543,22.745-32.257,42.181
	c-15.712,19.438-25.225,29.155-28.533,29.155c-0.825,0-26.469-14.68-76.92-44.042c-1.652-1.24-2.479-2.688-2.479-4.343
	c0-10.338,10.544-38.872,31.635-85.602c-7.446-10.338-13.646-21.091-18.61-32.256c-61.618-6.204-92.426-12.613-92.426-19.229
	v-86.844c0-6.617,30.808-13.026,92.426-19.229c5.378-11.993,11.578-22.745,18.61-32.255c-21.091-46.73-31.635-75.266-31.635-85.604
	c0-1.654,0.827-3.101,2.479-4.343c1.654-0.827,8.891-4.963,21.709-12.406c12.824-7.443,25.021-14.473,36.6-21.089
	c11.581-6.617,17.786-9.926,18.611-9.926c3.309,0,12.821,9.615,28.533,28.843c15.714,19.231,26.466,33.187,32.257,41.872
	c8.269-0.827,14.474-1.24,18.607-1.24c4.138,0,10.34,0.413,18.611,1.24c21.091-29.361,40.111-52.52,57.068-69.476l3.722-1.24
	c1.653,0,27.293,14.473,76.92,43.421c1.653,1.242,2.48,2.689,2.48,4.343c0,10.338-10.547,38.874-31.639,85.604
	c7.032,9.511,13.236,20.263,18.61,32.255C1460.689,522.143,1491.497,528.552,1491.497,535.169z"/>
</svg>
